<svg xmlns="http://www.w3.org/2000/svg" viewBox="0 0 116 65">
  <g fill="none" transform="translate(2 2)">
    <path fill="#222" d="M38.112,32.784 C39.5413333,32.784 40.9173333,32.5066667 42.24,31.952 L42.24,31.952 L42.24,31.632 L42.24,31.632 L41.76,31.632 C40.0106667,31.632 38.5706667,31.0453333 37.44,29.872 C36.0106667,28.3786667 34.9333333,25.712 34.208,21.872 L34.208,21.872 L30.592,3.152 L30.304,3.152 L20.8,17.328 L15.072,8.016 C13.344,5.15733333 11.264,3.09866667 8.832,1.84 C7.616,1.22133333 6.27733333,0.912 4.816,0.912 C3.35466667,0.912 1.86666667,1.31733333 0.352,2.128 L0.352,2.128 L0.448,2.448 L0.448,2.448 L0.704,2.448 C2.21866667,2.448 3.73333333,3.28 5.248,4.944 C6.57066667,6.416 7.776,8.10133333 8.864,10 L8.864,10 L6.656,23.728 C6.54933333,24.3253333 6.27733333,24.8 5.84,25.152 C5.40266667,25.504 4.896,25.68 4.32,25.68 L4.32,25.68 L3.808,25.68 L3.808,26 L10.816,26 L10.816,25.712 L10.336,25.712 C9.99466667,25.712 9.70133333,25.568 9.456,25.28 C9.21066667,24.992 9.088,24.6773333 9.088,24.336 L9.088,24.336 L9.088,24.208 L10.688,13.456 L18.464,26.768 L18.752,26.768 C18.7306667,26.256 18.8586667,25.6373333 19.136,24.912 C19.4133333,24.1866667 19.7333333,23.568 20.096,23.056 L20.096,23.056 L25.568,14.928 L27.04,21.68 C27.744,25.0293333 28.9706667,27.6213333 30.72,29.456 C32.8106667,31.6746667 35.2746667,32.784 38.112,32.784 Z"/>
    <path fill="#434343" d="M43.556,26 L43.556,25.8 L43.296,25.8 C42.9493333,25.8 42.6493333,25.6766667 42.396,25.43 C42.1426667,25.1833333 42.016,24.8866667 42.016,24.54 L42.016,24.54 L42.016,13.44 C42.0293333,13.0933333 42.1593333,12.8 42.406,12.56 C42.6526667,12.32 42.9493333,12.2 43.296,12.2 L43.296,12.2 L43.556,12.2 L43.556,12 L36.376,12 L36.376,12.2 L36.636,12.2 C36.9826667,12.2 37.2793333,12.32 37.526,12.56 C37.7726667,12.8 37.9026667,13.0933333 37.916,13.44 L37.916,13.44 L37.916,24.54 C37.9026667,24.8866667 37.7726667,25.1833333 37.526,25.43 C37.2793333,25.6766667 36.9826667,25.8 36.636,25.8 L36.636,25.8 L36.376,25.8 L36.376,26 L43.556,26 Z M49.956,26.28 C51.8626667,26.28 53.3893333,25.8833333 54.536,25.09 C55.6826667,24.2966667 56.256,23.0933333 56.256,21.48 C56.256,19.8666667 55.4826667,18.7066667 53.936,18 L53.936,18 L50.196,16.26 C49.956,16.1666667 49.7626667,16.08 49.616,16 C48.7626667,15.56 48.3626667,15.0266667 48.416,14.4 C48.456,13.8933333 48.7193333,13.4866667 49.206,13.18 C49.6926667,12.8733333 50.3793333,12.72 51.266,12.72 C52.1526667,12.72 52.8826667,12.9466667 53.456,13.4 C54.0293333,13.8533333 54.316,14.4466667 54.316,15.18 L54.316,15.18 L54.516,15.18 L54.956,11.92 L53.396,11.92 C52.0226667,11.7866667 50.896,11.72 50.016,11.72 C48.6693333,11.72 47.5893333,12.0266667 46.776,12.64 C45.8026667,13.3866667 45.316,14.48 45.316,15.92 C45.316,16.6266667 45.4826667,17.2733333 45.816,17.86 C46.2293333,18.6066667 46.896,19.1866667 47.816,19.6 L47.816,19.6 L51.076,21.12 C51.8226667,21.4666667 52.3626667,21.8133333 52.696,22.16 C53.0293333,22.5066667 53.196,22.9233333 53.196,23.41 C53.196,23.8966667 52.9526667,24.33 52.466,24.71 C51.9793333,25.09 51.2826667,25.28 50.376,25.28 C49.0293333,25.28 47.966,24.89 47.186,24.11 C46.406,23.33 46.016,22.4466667 46.016,21.46 C46.016,21.3666667 46.0226667,21.28 46.036,21.2 L46.036,21.2 L45.856,21.2 C45.5093333,21.64 45.2626667,22.2533333 45.116,23.04 C45.0626667,23.36 45.036,23.69 45.036,24.03 C45.036,24.37 45.096,24.6866667 45.216,24.98 C45.5893333,25.3533333 46.196,25.6633333 47.036,25.91 C47.876,26.1566667 48.8493333,26.28 49.956,26.28 Z M66.506,26.2700799 C69.246,26.2766667 71.1093333,25.4533333 72.096,23.8 L72.096,23.8 L71.616,20.16 L71.456,20.16 C71.0826667,22.1333333 70.5626667,23.4666667 69.896,24.16 C69.1893333,24.9066667 68.0493333,25.28 66.476,25.28 C65.116,25.24 64.0526667,24.66 63.286,23.54 C62.5193333,22.42 62.136,20.8833333 62.136,18.93 C62.136,16.9766667 62.5493333,15.4533333 63.376,14.36 C64.2026667,13.2666667 65.356,12.72 66.836,12.72 C67.9293333,12.72 68.8426667,13.0066667 69.576,13.58 C70.3093333,14.1533333 70.8693333,15.1133333 71.256,16.46 L71.256,16.46 L71.436,16.46 L71.636,12.64 C70.196,12.0266667 68.5226667,11.72 66.616,11.72 C64.7093333,11.72 63.0993333,12.0066667 61.786,12.58 C60.4726667,13.1533333 59.4693333,13.9866667 58.776,15.08 C58.0826667,16.1733333 57.736,17.4733333 57.736,18.98 C57.736,21.2866667 58.5126667,23.0766667 60.066,24.35 C61.6193333,25.6233333 63.766,26.2633333 66.506,26.2700799 Z M80.576,26 L80.576,25.8 L80.316,25.8 C80.0893333,25.8 79.876,25.7466667 79.676,25.64 C79.2626667,25.4 79.0493333,25.0333333 79.036,24.54 L79.036,24.54 L79.036,19.5 L84.416,19.5 L84.416,24.56 C84.4026667,24.9066667 84.2726667,25.2 84.026,25.44 C83.7793333,25.68 83.4826667,25.8 83.136,25.8 L83.136,25.8 L82.876,25.8 L82.876,26 L90.056,26 L90.056,25.8 L89.796,25.8 C89.4493333,25.8 89.1526667,25.6766667 88.906,25.43 C88.6593333,25.1833333 88.5293333,24.8866667 88.516,24.54 L88.516,24.54 L88.516,13.46 C88.5293333,13.2333333 88.5893333,13.02 88.696,12.82 C88.9493333,12.4066667 89.316,12.2 89.796,12.2 L89.796,12.2 L90.056,12.2 L90.056,12 L82.876,12 L82.876,12.2 L83.136,12.2 C83.4826667,12.2 83.7793333,12.32 84.026,12.56 C84.2726667,12.8 84.4026667,13.0933333 84.416,13.44 L84.416,13.44 L84.416,18.5 L79.036,18.5 L79.036,13.44 C79.0493333,13.0933333 79.1793333,12.8 79.426,12.56 C79.6726667,12.32 79.9693333,12.2 80.316,12.2 L80.316,12.2 L80.576,12.2 L80.576,12 L73.396,12 L73.396,12.2 L73.656,12.2 C74.0026667,12.2 74.2993333,12.32 74.546,12.56 C74.7926667,12.8 74.9226667,13.0933333 74.936,13.44 L74.936,13.44 L74.936,24.54 C74.9226667,24.8866667 74.7926667,25.1833333 74.546,25.43 C74.2993333,25.6766667 74.0026667,25.8 73.656,25.8 L73.656,25.8 L73.396,25.8 L73.396,26 L80.576,26 Z M93.736,26 L93.736,25.8 L93.556,25.8 C93.3826667,25.8 93.2193333,25.75 93.066,25.65 C92.9126667,25.55 92.8126667,25.4366667 92.766,25.31 C92.7193333,25.1833333 92.696,25.0666667 92.696,24.96 C92.696,24.8533333 92.7293333,24.7133333 92.796,24.54 L92.796,24.54 L93.596,22.68 L97.876,22.68 L98.656,24.54 C98.7226667,24.7133333 98.756,24.8766667 98.756,25.03 C98.756,25.1833333 98.6826667,25.35 98.536,25.53 C98.3893333,25.71 98.1693333,25.8 97.876,25.8 L97.876,25.8 L97.696,25.8 L97.696,26 L105.276,26 L105.276,25.8 L105.116,25.8 C104.422667,25.8 103.862667,25.4333333 103.436,24.7 L103.436,24.7 L97.096,11.52 L96.916,11.52 C96.8626667,12.0133333 96.4826667,13.0066667 95.776,14.5 L95.776,14.5 L91.116,24.72 C90.916,25.08 90.666,25.35 90.366,25.53 C90.066,25.71 89.7626667,25.8 89.456,25.8 L89.456,25.8 L89.276,25.8 L89.276,26 L93.736,26 Z M97.456,21.68 L94.036,21.68 L95.776,17.68 L97.456,21.68 Z"/>
    <path fill="#222" d="M34.304,59.784 C36.0106667,59.784 37.824,59.368 39.744,58.536 L39.744,58.536 L39.68,58.216 C38.9973333,58.3653333 38.304,58.44 37.6,58.44 C36.896,58.44 36.192,58.3333333 35.488,58.12 C33.056,57.352 31.2853333,55.624 30.176,52.936 C29.6853333,51.72 29.44,50.4933333 29.44,49.256 L29.44,49.256 L29.44,44.072 C29.4186667,43.6026667 29.5466667,43.24 29.824,42.984 C30.1013333,42.728 30.496,42.6 31.008,42.6 L31.008,42.6 L31.52,42.6 L31.52,42.28 L20.768,42.28 L20.768,42.6 L21.248,42.6 C21.7813333,42.6 22.192,42.728 22.48,42.984 C22.768,43.24 22.9013333,43.6026667 22.88,44.072 L22.88,48.424 C22.88,49.448 22.4906667,50.2746667 21.712,50.904 C20.9333333,51.5333333 19.8666667,51.848 18.512,51.848 C17.1573333,51.848 15.9253333,51.4373333 14.816,50.616 C13.7066667,49.7946667 12.8533333,48.6373333 12.256,47.144 C11.6586667,45.6506667 11.36,43.9333333 11.36,41.992 C11.36,38.92 12.0533333,36.4453333 13.44,34.568 C14.8266667,32.6906667 16.5866667,31.752 18.72,31.752 C20.8533333,31.752 22.672,32.248 24.176,33.24 C25.68,34.232 26.688,35.7306667 27.2,37.736 L27.2,37.736 L27.488,37.736 L27.808,31.592 C27.168,31.336 26.336,31.1013333 25.312,30.888 C23.0293333,30.3973333 20.6826667,30.152 18.272,30.152 C14.0906667,30.152 10.72,31.2133333 8.16,33.336 C5.6,35.4586667 4.32,38.2693333 4.32,41.768 C4.32,45.2666667 5.57333333,48.088 8.08,50.232 C10.5866667,52.376 13.856,53.448 17.888,53.448 C19.936,53.448 21.888,53.16 23.744,52.584 C24.512,54.4613333 25.6746667,56.0293333 27.232,57.288 C28.7893333,58.5466667 30.6346667,59.3466667 32.768,59.688 C33.28,59.752 33.792,59.784 34.304,59.784 Z"/>
    <path fill="#434343" d="M40.904,53.28 C43.4906667,53.28 45.524,52.6366667 47.004,51.35 C48.484,50.0633333 49.224,48.28 49.224,46 C49.224,44.4933333 48.8906667,43.19 48.224,42.09 C47.5573333,40.99 46.6006667,40.1533333 45.354,39.58 C44.1073333,39.0066667 42.624,38.72 40.904,38.72 C38.3173333,38.72 36.2873333,39.3633333 34.814,40.65 C33.3406667,41.9366667 32.604,43.72 32.604,46 C32.604,48.28 33.3406667,50.0633333 34.814,51.35 C36.2873333,52.6366667 38.3173333,53.28 40.904,53.28 Z M40.914,52.28 C39.694,52.28 38.7373333,51.7266667 38.044,50.62 C37.364,49.5133333 37.024,47.9733333 37.024,46 C37.024,44.0266667 37.3673333,42.4866667 38.054,41.38 C38.7406667,40.2733333 39.694,39.72 40.914,39.72 C42.134,39.72 43.0873333,40.2733333 43.774,41.38 C44.4606667,42.4866667 44.804,44.0266667 44.804,46 C44.804,47.9733333 44.4606667,49.5133333 43.774,50.62 C43.0873333,51.7266667 42.134,52.28 40.914,52.28 Z M57.284,53 L57.284,52.8 L57.024,52.8 C56.7973333,52.8 56.584,52.7466667 56.384,52.64 C55.9706667,52.4 55.7573333,52.0333333 55.744,51.54 L55.744,51.54 L55.744,46.5 L61.124,46.5 L61.124,51.56 C61.1106667,51.9066667 60.9806667,52.2 60.734,52.44 C60.4873333,52.68 60.1906667,52.8 59.844,52.8 L59.844,52.8 L59.584,52.8 L59.584,53 L66.764,53 L66.764,52.8 L66.504,52.8 C66.1573333,52.8 65.8606667,52.6766667 65.614,52.43 C65.3673333,52.1833333 65.2373333,51.8866667 65.224,51.54 L65.224,51.54 L65.224,40.46 C65.2373333,40.2333333 65.2973333,40.02 65.404,39.82 C65.6573333,39.4066667 66.024,39.2 66.504,39.2 L66.504,39.2 L66.764,39.2 L66.764,39 L59.584,39 L59.584,39.2 L59.844,39.2 C60.1906667,39.2 60.4873333,39.32 60.734,39.56 C60.9806667,39.8 61.1106667,40.0933333 61.124,40.44 L61.124,40.44 L61.124,45.5 L55.744,45.5 L55.744,40.44 C55.7573333,40.0933333 55.8873333,39.8 56.134,39.56 C56.3806667,39.32 56.6773333,39.2 57.024,39.2 L57.024,39.2 L57.284,39.2 L57.284,39 L50.104,39 L50.104,39.2 L50.364,39.2 C50.7106667,39.2 51.0073333,39.32 51.254,39.56 C51.5006667,39.8 51.6306667,40.0933333 51.644,40.44 L51.644,40.44 L51.644,51.54 C51.6306667,51.8866667 51.5006667,52.1833333 51.254,52.43 C51.0073333,52.6766667 50.7106667,52.8 50.364,52.8 L50.364,52.8 L50.104,52.8 L50.104,53 L57.284,53 Z M79.664,53 L80.424,48.36 L80.224,48.36 C79.9173333,49.4933333 79.3906667,50.38 78.644,51.02 C77.8973333,51.66 77.0373333,51.98 76.064,51.98 L76.064,51.98 L73.604,51.98 L73.604,40.46 C73.604,40.1133333 73.7306667,39.8166667 73.984,39.57 C74.2373333,39.3233333 74.5373333,39.2 74.884,39.2 L74.884,39.2 L75.144,39.2 L75.144,39 L67.964,39 L67.964,39.2 L68.224,39.2 C68.4506667,39.2 68.664,39.2533333 68.864,39.36 C69.2773333,39.6 69.4906667,39.9666667 69.504,40.46 L69.504,40.46 L69.504,51.54 C69.4906667,51.8866667 69.3606667,52.1833333 69.114,52.43 C68.8673333,52.6766667 68.5706667,52.8 68.224,52.8 L68.224,52.8 L67.964,52.8 L67.964,53 L79.664,53 Z M88.184,53 L88.184,52.8 L87.924,52.8 C87.5773333,52.8 87.2773333,52.6766667 87.024,52.43 C86.7706667,52.1833333 86.644,51.8866667 86.644,51.54 L86.644,51.54 L86.644,40.44 C86.6573333,40.0933333 86.7873333,39.8 87.034,39.56 C87.2806667,39.32 87.5773333,39.2 87.924,39.2 L87.924,39.2 L88.184,39.2 L88.184,39 L81.004,39 L81.004,39.2 L81.264,39.2 C81.6106667,39.2 81.9073333,39.32 82.154,39.56 C82.4006667,39.8 82.5306667,40.0933333 82.544,40.44 L82.544,40.44 L82.544,51.54 C82.5306667,51.8866667 82.4006667,52.1833333 82.154,52.43 C81.9073333,52.6766667 81.6106667,52.8 81.264,52.8 L81.264,52.8 L81.004,52.8 L81.004,53 L88.184,53 Z M97.364,53 L97.364,52.8 C96.5906667,52.7733333 95.8773333,52.2666667 95.224,51.28 L95.224,51.28 L90.544,44.24 L93.924,40.16 C94.4973333,39.5066667 95.2306667,39.18 96.124,39.18 L96.124,39.18 L96.204,39.18 L96.204,39 L91.384,39 L91.384,39.18 L91.584,39.18 C91.864,39.18 92.0506667,39.28 92.144,39.48 C92.184,39.56 92.204,39.6533333 92.204,39.76 C92.204,39.8666667 92.1573333,39.9866667 92.064,40.12 L92.064,40.12 L87.284,46.64 C87.284,46.6533333 87.6473333,47.25 88.374,48.43 C89.1006667,49.61 89.664,50.4666667 90.064,51 C91.0373333,52.3333333 92.7506667,53 95.204,53 L95.204,53 L97.364,53 Z M109.124,53 L109.884,48.36 L109.684,48.36 C109.377333,49.4933333 108.850667,50.38 108.104,51.02 C107.357333,51.66 106.497333,51.98 105.524,51.98 L105.524,51.98 L103.064,51.98 L103.064,46.6 L105.264,46.6 C105.890667,46.6133333 106.404,46.8233333 106.804,47.23 C107.204,47.6366667 107.404,48.1533333 107.404,48.78 L107.404,48.78 L107.404,48.88 L107.604,48.88 L107.604,43.32 L107.404,43.32 L107.404,43.4 C107.404,44.04 107.204,44.5633333 106.804,44.97 C106.404,45.3766667 105.884,45.5866667 105.244,45.6 L105.244,45.6 L103.064,45.6 L103.064,40.02 L105.964,40.02 C106.484,40.0333333 106.930667,40.1466667 107.304,40.36 C108.077333,40.7866667 108.464,41.5333333 108.464,42.6 L108.464,42.6 L108.464,42.76 L108.664,42.76 L108.664,38.64 C108.544,38.6933333 108.260667,38.7666667 107.814,38.86 C107.367333,38.9533333 106.857333,39 106.284,39 L106.284,39 L97.424,39 L97.424,39.2 L97.684,39.2 C97.964,39.2 98.2106667,39.28 98.424,39.44 C98.7706667,39.6933333 98.9506667,40.0333333 98.964,40.46 L98.964,40.46 L98.964,51.54 C98.9506667,51.8866667 98.8206667,52.1833333 98.574,52.43 C98.3273333,52.6766667 98.0306667,52.8 97.684,52.8 L97.684,52.8 L97.424,52.8 L97.424,53 L109.124,53 Z"/>
  </g>
</svg>
