<svg xmlns="http://www.w3.org/2000/svg" viewBox="0 0 64 64">
  <g fill="none" fill-rule="evenodd">
    <path fill="#FFF" d="M0 0H64V64H0z"/>
    <g fill="#222" fill-rule="nonzero" transform="translate(3 4)">
      <path d="M40.565317,33 C42.1008403,33 43.579068,32.7128514 45,32.1385542 L45,32.1385542 L45,31.8072289 L45,31.8072289 L44.4843392,31.8072289 C42.6050421,31.8072289 41.0580596,31.1997992 39.8433919,29.9849398 C38.3078686,28.4387551 37.1504965,25.6777108 36.3712758,21.7018072 L36.3712758,21.7018072 L32.486631,2.31927711 L32.1772345,2.31927711 L21.9671505,16.996988 L15.8135982,7.35542169 C13.9572193,4.39558233 11.7226891,2.26405623 9.11000764,0.960843373 C7.80366692,0.320281124 6.36554621,0 4.79564553,0 C3.22574485,0 1.62719634,0.419678715 0,1.25903614 L0,1.25903614 L0.103132162,1.59036145 L0.103132162,1.59036145 L0.378151261,1.59036145 C2.0053476,1.59036145 3.63254392,2.45180723 5.25974026,4.1746988 C6.68067227,5.69879518 7.97555386,7.4437751 9.14438503,9.40963855 L9.14438503,9.40963855 L6.7723453,23.623494 C6.65775401,24.2419678 6.36554621,24.7334337 5.89572193,25.0978916 C5.42589764,25.4623494 4.881589,25.6445783 4.26279603,25.6445783 L4.26279603,25.6445783 L3.71275783,25.6445783 L3.71275783,25.9759036 L11.2414057,25.9759036 L11.2414057,25.6777108 L10.7257448,25.6777108 C10.3590527,25.6777108 10.0439267,25.5286145 9.78036669,25.2304217 C9.51680673,24.9322289 9.38502674,24.6064257 9.38502674,24.253012 L9.38502674,24.253012 L9.38502674,24.1204819 L11.1038961,12.9879518 L19.4576012,26.7710843 L19.7669977,26.7710843 C19.7440795,26.2409639 19.881589,25.6004016 20.1795264,24.8493976 C20.4774637,24.0983936 20.8212376,23.4578313 21.210848,22.9277108 L21.210848,22.9277108 L27.0893812,14.5120482 L28.670741,21.503012 C29.4270435,24.9708835 30.7448434,27.6546184 32.6241406,29.5542169 C34.8701299,31.8514057 37.5171887,33 40.565317,33 Z"/>
      <path stroke="#FFF" stroke-width="1.5" d="M41.4075649,48.8954969 C39.5399095,49.4278426 37.5882699,49.6938445 35.5546522,49.6938445 C31.0542791,49.6938445 27.3692097,48.4394093 24.5354407,45.9231256 C21.6823815,43.3897128 20.25,40.0422674 20.25,35.9362851 C20.25,31.8259507 21.7146955,28.4869716 24.6299461,25.9774859 C27.5209291,23.4888902 31.3108474,22.25 35.9665763,22.25 C38.6070767,22.25 41.179167,22.5291633 43.677066,23.0866042 C44.81632,23.3330073 45.7503945,23.6065194 46.4836603,23.9110202 L46.9715534,24.1136259 L46.566072,32.1960043 L44.9559135,32.1960043 L44.8155136,31.6251168 C44.3085127,29.5635743 43.33011,28.0533927 41.8761702,27.0578103 C40.3932139,26.0423588 38.5901906,25.5318575 36.4471545,25.5318575 C34.4100809,25.5318575 32.7455911,26.4534667 31.3943074,28.3527198 C30.0049515,30.3054839 29.3019422,32.9104535 29.3019422,36.1857451 C29.3019422,38.2595984 29.6071073,40.0812683 30.2129483,41.6536777 C30.8062148,43.1934512 31.6409084,44.3687109 32.7163225,45.1953198 C33.7763866,46.01013 34.9376369,46.411987 36.2240289,46.411987 C37.5123701,46.411987 38.4863143,46.1137078 39.1746506,45.5361483 C39.8378587,44.9796729 40.1596658,44.2703052 40.1596658,43.3488121 L40.1603836,38.4693537 C40.1741421,38.1551146 40.1074119,37.9666812 39.9719461,37.8416714 C39.8148596,37.6967096 39.5557041,37.612851 39.1589883,37.612851 L37.8940831,37.612851 L37.8940831,35.7564795 L50.9279584,35.7564795 L50.9279584,37.612851 L49.6287263,37.612851 C49.2600475,37.612851 49.0229072,37.6926967 48.8775487,37.8319949 C48.7476605,37.9564677 48.681987,38.1496445 48.6967028,38.5021598 L48.6967028,44.275378 C48.6967028,45.5591104 48.9421563,46.8332186 49.4331745,48.096594 C50.5444529,50.8920784 52.2811744,52.6516384 54.6595795,53.4314365 C55.3427996,53.6463746 56.0221797,53.7532397 56.7000903,53.7532397 C57.3994777,53.7532397 58.0875172,53.6763152 58.7652511,53.5224026 L59.5211674,53.3507349 L59.8486721,55.0507571 L59.3077008,55.294125 C57.1559574,56.2621344 55.1075443,56.75 53.1644083,56.75 C52.5828347,56.75 52.0013637,56.712271 51.3938158,56.6329511 C48.975077,56.2311826 46.8711512,55.2842642 45.0960597,53.7948452 C43.5023149,52.457588 42.2714688,50.8219933 41.4075649,48.8954969 Z"/>
    </g>
  </g>
</svg>
